
<svg version="1.0" xmlns="http://www.w3.org/2000/svg"
 width="1275.000000pt" height="712.000000pt" viewBox="0 0 1275.000000 712.000000"
 preserveAspectRatio="xMidYMid meet">

<g transform="translate(0.000000,712.000000) scale(0.100000,-0.100000)"
fill="#000000" stroke="none">
<path d="M4324 5248 c-3 -4 -18 -33 -35 -65 -17 -32 -46 -76 -65 -100 l-34
-41 56 -32 c62 -36 57 -38 105 38 19 29 25 32 70 32 48 0 50 -1 43 -22 -22
-71 -99 -123 -218 -148 -31 -6 -56 -16 -56 -21 0 -5 11 -27 25 -49 l25 -40
-85 0 -85 0 0 -140 0 -140 70 0 70 0 0 80 0 80 220 0 220 0 0 -75 0 -75 70 0
70 0 0 134 c0 133 0 133 23 129 19 -4 27 4 50 53 32 65 30 68 -45 77 -65 8
-144 45 -191 89 -53 51 -43 68 39 68 l65 0 -16 -30 c-15 -29 -15 -30 18 -44
71 -29 70 -30 105 34 23 42 32 72 32 104 l0 46 -220 0 c-215 0 -220 0 -210 19
5 11 10 24 10 29 0 12 -120 21 -126 10z m247 -344 c31 -33 98 -73 152 -89 38
-12 20 -14 -173 -14 l-215 0 53 21 c30 12 75 41 100 64 26 24 50 43 53 44 3 0
16 -12 30 -26z"/>
<path d="M1632 5205 l-12 -44 -82 -3 -83 -3 0 -55 0 -55 45 -5 44 -5 -54 -54
-55 -53 -3 136 -3 136 -154 0 -155 0 0 -165 0 -165 60 0 60 0 -2 -182 c-3
-165 -5 -183 -20 -186 -17 -3 -18 10 -18 157 l0 161 -45 0 -45 0 0 -165 c0
-146 -2 -165 -16 -165 -15 0 -16 -9 -10 -67 4 -37 9 -69 10 -71 2 -2 85 9 185
24 l181 28 0 64 0 65 -50 -6 -50 -6 0 64 0 65 35 0 35 0 0 55 0 55 -35 0 -35
0 0 55 c0 51 2 55 24 55 37 0 56 -39 56 -115 l0 -65 50 0 c28 0 50 -1 50 -2 0
-2 -7 -28 -15 -58 -29 -106 -37 -100 135 -100 145 0 150 -1 150 -21 0 -11 -5
-29 -10 -40 -10 -17 -22 -19 -126 -19 -105 0 -115 -2 -110 -17 3 -10 10 -38
16 -62 l11 -43 122 4 c193 6 216 26 225 198 l5 110 -145 0 -145 0 5 25 4 25
159 0 159 0 0 55 0 55 -262 0 -263 1 28 21 c26 19 40 20 203 19 146 -2 175 0
180 13 5 12 14 9 52 -15 25 -16 46 -28 48 -26 1 1 13 25 28 54 l26 51 -53 30
c-28 16 -65 44 -81 61 l-30 31 67 0 67 0 0 60 0 60 -121 0 c-111 0 -121 1
-114 18 3 9 9 29 12 45 l6 27 -65 0 -64 0 -12 -45z m-322 -180 l0 -45 -40 0
-40 0 0 45 0 45 40 0 40 0 0 -45z m442 -30 l27 -45 -75 0 -75 0 31 45 c17 25
39 45 48 45 9 0 29 -21 44 -45z"/>
<path d="M3070 5131 l0 -120 -32 -3 c-33 -3 -33 -3 -36 -65 l-3 -63 36 0 35 0
0 -169 0 -170 -37 -3 -38 -3 3 -65 c2 -36 5 -66 5 -67 1 0 52 8 112 18 143 25
145 24 145 -6 0 -30 5 -30 131 -13 l88 11 41 -44 40 -44 51 55 c32 35 53 50
56 42 10 -25 56 -73 84 -87 93 -49 166 23 176 175 l6 77 -46 11 c-68 18 -67
18 -67 -50 0 -99 -19 -109 -54 -28 -13 33 -12 36 35 124 45 86 99 226 99 259
0 10 -18 19 -51 27 -27 7 -51 11 -53 9 -2 -2 -15 -44 -30 -93 -15 -49 -31 -85
-36 -80 -5 5 -10 57 -12 117 l-3 107 108 0 107 0 0 65 0 65 -36 0 c-36 0 -36
0 -15 18 l22 17 -36 43 c-20 23 -41 42 -46 42 -5 0 -27 -11 -49 -25 l-41 -26
27 -34 26 -35 -36 0 -36 0 0 65 0 65 -67 0 -68 0 3 -65 4 -65 -156 0 -156 0 0
-65 0 -65 154 0 153 0 7 -46 c3 -26 6 -70 6 -98 1 -28 7 -103 14 -166 14 -112
14 -116 -6 -137 -18 -19 -23 -20 -32 -8 -9 12 -27 12 -126 0 -171 -21 -180
-20 -180 11 0 23 -3 25 -30 19 l-30 -7 0 161 0 161 25 0 c24 0 25 2 25 65 0
63 -1 65 -25 65 l-25 0 0 120 0 120 -65 0 -65 0 0 -119z"/>
<path d="M4016 5206 c-38 -46 -43 -61 -23 -69 6 -2 38 -25 69 -51 31 -25 58
-46 60 -46 7 0 78 97 78 106 0 8 -132 104 -144 104 -2 0 -21 -20 -40 -44z"/>
<path d="M2176 5184 c-17 -31 -54 -92 -83 -136 -29 -44 -53 -85 -53 -91 1 -7
13 -36 29 -65 l27 -54 39 56 c21 31 40 56 42 56 1 0 16 -27 33 -60 l30 -60 50
25 c28 14 50 28 50 31 0 5 -68 125 -76 133 -2 2 -15 -4 -28 -13 -38 -25 -40
-20 -9 34 15 27 31 50 35 50 4 0 32 -38 63 -85 l57 -85 34 21 34 21 0 -206 0
-206 65 0 65 0 0 175 0 175 115 0 115 0 0 -175 0 -175 65 0 65 0 0 235 0 235
-100 0 c-89 0 -100 2 -100 18 0 36 14 41 115 44 l100 3 0 60 0 60 -265 0 -265
0 -5 -59 -5 -59 -48 61 c-30 38 -45 66 -41 76 5 14 -4 16 -57 16 l-64 0 -29
-56z m442 -131 c-3 -27 -4 -28 -78 -31 -74 -3 -76 -2 -98 28 l-23 30 101 0
101 0 -3 -27z"/>
<path d="M4967 5202 l-38 -39 76 -68 c42 -37 80 -64 84 -59 5 5 25 28 45 51
l37 42 -74 55 c-41 31 -78 56 -83 56 -6 0 -27 -17 -47 -38z"/>
<path d="M5177 4918 c-5 -311 -12 -366 -59 -463 l-23 -46 50 -44 c28 -24 53
-44 57 -45 13 0 47 76 68 152 29 107 40 229 40 441 l0 187 85 0 c47 0 85 -2
85 -4 0 -1 -5 -17 -11 -34 -10 -29 -15 -31 -62 -34 l-52 -3 0 -200 0 -200 83
-3 82 -3 0 -80 c0 -87 -4 -93 -59 -87 l-31 3 30 45 c16 25 30 47 30 50 0 6
-92 62 -94 58 -31 -47 -98 -137 -110 -147 -25 -21 -19 -35 25 -71 l42 -33 27
33 28 34 11 -39 c6 -22 11 -46 11 -54 0 -11 14 -13 71 -8 114 10 140 36 148
157 l6 75 47 -79 c26 -44 49 -84 51 -90 2 -7 17 -4 38 8 79 42 78 35 15 131
-32 47 -61 85 -66 85 -5 0 -24 -9 -42 -20 -42 -26 -48 -25 -48 5 0 23 3 24 78
27 l77 3 0 200 0 200 -112 3 -112 3 16 34 16 34 116 3 116 3 3 53 3 52 -334 0
-335 0 -5 -292z m503 -18 l0 -30 -100 0 -100 0 0 30 0 30 100 0 100 0 0 -30z
m0 -145 l0 -25 -100 0 -100 0 0 25 0 25 100 0 100 0 0 -25z"/>
<path d="M8261 5060 c14 -4 36 -13 48 -20 15 -8 21 -8 17 -1 -5 7 8 11 40 11
73 0 48 7 -46 12 -47 3 -73 2 -59 -2z"/>
<path d="M4075 4993 c-49 -30 -96 -58 -104 -62 -12 -7 -11 -17 8 -62 13 -30
27 -58 31 -63 5 -5 36 9 72 31 35 22 82 52 105 66 l42 26 -26 61 c-15 33 -29
60 -32 59 -3 0 -46 -25 -96 -56z"/>
<path d="M8493 5043 c15 -2 37 -2 50 0 12 2 0 4 -28 4 -27 0 -38 -2 -22 -4z"/>
<path d="M8658 5033 c23 -2 59 -2 80 0 20 2 1 4 -43 4 -44 0 -61 -2 -37 -4z"/>
<path d="M8828 5023 c17 -2 47 -2 65 0 17 2 3 4 -33 4 -36 0 -50 -2 -32 -4z"/>
<path d="M8997 5013 c18 -2 50 -2 70 0 21 2 7 4 -32 4 -38 0 -55 -2 -38 -4z"/>
<path d="M9168 5003 c23 -2 59 -2 80 0 20 2 1 4 -43 4 -44 0 -61 -2 -37 -4z"/>
<path d="M4957 4962 c-20 -21 -37 -43 -37 -49 0 -6 31 -39 70 -73 l70 -62 27
33 c41 48 52 63 53 71 0 7 -133 118 -142 118 -2 0 -21 -17 -41 -38z"/>
<path d="M9328 4993 c23 -2 59 -2 80 0 20 2 1 4 -43 4 -44 0 -61 -2 -37 -4z"/>
<path d="M8445 4940 c27 -27 51 -50 54 -50 3 0 -17 23 -44 50 -27 28 -51 50
-54 50 -3 0 17 -22 44 -50z"/>
<path d="M9533 4983 c15 -2 39 -2 55 0 15 2 2 4 -28 4 -30 0 -43 -2 -27 -4z"/>
<path d="M7900 4946 c-43 -31 -57 -48 -96 -113 -12 -20 -8 -17 11 7 16 19 53
59 84 88 30 28 53 52 50 52 -2 0 -24 -16 -49 -34z"/>
<path d="M9688 4973 c18 -2 45 -2 60 0 15 2 0 4 -33 4 -33 0 -45 -2 -27 -4z"/>
<path d="M9863 4963 c9 -2 25 -2 35 0 9 3 1 5 -18 5 -19 0 -27 -2 -17 -5z"/>
<path d="M3270 4755 l0 -165 140 0 140 0 0 165 0 165 -140 0 -140 0 0 -165z
m170 0 l0 -75 -30 0 -30 0 0 75 0 75 30 0 30 0 0 -75z"/>
<path d="M10250 4887 c0 -2 24 -20 53 -40 30 -19 83 -61 118 -92 47 -42 44
-38 -13 16 -64 62 -158 130 -158 116z"/>
<path d="M2628 4748 c-3 -79 -10 -136 -20 -158 -21 -48 -79 -103 -147 -136
-31 -15 -58 -29 -60 -31 -2 -1 15 -27 39 -57 l42 -55 32 16 c48 24 154 101
169 123 13 19 18 16 112 -59 l98 -79 44 51 43 50 -86 64 c-48 35 -99 71 -114
80 l-28 16 5 149 6 148 -65 0 -66 0 -4 -122z"/>
<path d="M2067 4813 c-4 -3 -7 -32 -7 -64 l0 -58 105 -3 104 -3 -26 -52 -27
-53 -36 35 c-20 19 -40 35 -46 35 -6 0 -25 -15 -43 -34 l-34 -35 24 -28 c101
-120 202 -233 209 -233 12 0 89 64 89 75 1 5 -16 26 -36 47 l-37 38 57 115
c48 98 57 123 57 170 l0 55 -173 0 c-96 0 -177 -3 -180 -7z"/>
<path d="M7752 4735 c-17 -37 -14 -45 4 -12 9 16 14 31 11 33 -2 2 -9 -7 -15
-21z"/>
<path d="M5014 4703 c-4 -16 -22 -89 -41 -163 -20 -74 -36 -143 -37 -153 -1
-15 13 -23 59 -38 32 -10 60 -17 61 -16 4 5 84 350 82 353 -4 3 -108 44 -113
44 -3 0 -8 -12 -11 -27z"/>
<path d="M10490 4676 c0 -2 8 -10 18 -17 15 -13 16 -12 3 4 -13 16 -21 21 -21
13z"/>
<path d="M4366 4648 c-3 -7 -7 -25 -10 -40 -19 -84 -116 -128 -338 -153 l-57
-6 32 -65 c36 -74 35 -73 167 -48 98 18 167 44 225 84 l44 30 186 -65 c103
-36 189 -65 191 -65 5 0 66 122 62 125 -5 5 -312 94 -346 101 -36 7 -36 8 -16
88 l6 26 -71 0 c-49 0 -73 -4 -75 -12z"/>
<path d="M7716 4624 c-4 -20 -5 -38 -3 -40 3 -3 8 11 11 32 4 20 5 38 3 40 -3
3 -8 -11 -11 -32z"/>
<path d="M7702 4535 c0 -16 2 -22 5 -12 2 9 2 23 0 30 -3 6 -5 -1 -5 -18z"/>
<path d="M8632 4125 c0 -16 2 -22 5 -12 2 9 2 23 0 30 -3 6 -5 -1 -5 -18z"/>
<path d="M1280 4065 c0 -24 -2 -24 -92 -27 l-93 -3 -3 -42 -3 -43 95 0 c89 0
96 -1 96 -20 0 -18 -7 -20 -85 -20 l-86 0 3 -102 3 -103 53 -3 53 -3 -23 -18
c-13 -10 -47 -30 -76 -45 -52 -26 -53 -28 -38 -49 9 -12 21 -32 28 -44 6 -13
15 -23 20 -23 4 0 8 -16 8 -35 l0 -35 175 0 175 0 0 -85 0 -85 -65 0 -65 0 0
75 0 75 -65 0 -65 0 0 -75 0 -75 -76 0 -75 0 3 -47 3 -48 460 0 460 0 3 48 3
47 -195 0 c-188 0 -196 1 -196 20 0 18 8 20 138 22 l137 3 3 43 3 42 -140 0
c-134 0 -141 1 -141 20 0 19 7 20 165 20 l165 0 0 45 0 45 -152 0 -153 0 50
28 c28 16 59 34 70 41 17 11 30 8 95 -23 41 -20 81 -36 90 -36 12 0 70 86 70
104 0 2 -16 7 -36 11 -41 7 -104 35 -104 46 0 4 11 27 25 50 14 24 32 65 41
92 13 39 20 47 40 47 22 0 24 3 24 55 l0 55 -126 0 c-97 0 -125 3 -121 13 20
54 20 54 -29 61 -26 3 -52 6 -59 6 -7 0 -20 -23 -30 -52 -21 -67 -74 -168 -75
-145 0 15 -11 17 -85 17 -78 0 -85 2 -85 20 0 19 7 20 90 20 l90 0 0 45 0 45
-90 0 c-89 0 -90 0 -90 25 0 24 -3 25 -60 25 -57 0 -60 -1 -60 -25z m560 -175
c0 -6 -12 -34 -26 -62 l-26 -52 -34 54 c-19 30 -34 58 -34 62 0 4 27 8 60 8
35 0 60 -4 60 -10z m-560 -80 c0 -16 -7 -20 -30 -20 -23 0 -30 4 -30 20 0 16
7 20 30 20 23 0 30 -4 30 -20z m180 0 c0 -16 -7 -20 -30 -20 -23 0 -30 4 -30
20 0 16 7 20 30 20 23 0 30 -4 30 -20z m145 -36 c21 -14 24 -14 32 1 8 14 14
9 37 -25 33 -50 27 -61 -49 -89 l-54 -20 -63 29 -63 28 60 4 60 3 3 43 c2 23
5 42 8 42 3 0 15 -7 29 -16z m-191 -89 c-4 -8 -8 -15 -10 -15 -2 0 -4 7 -4 15
0 8 4 15 10 15 5 0 7 -7 4 -15z m-74 -130 c53 0 55 1 58 28 2 15 5 27 8 27 2
0 29 -14 60 -32 59 -33 58 -33 85 15 12 21 21 17 49 -23 l21 -30 -223 0 -222
0 49 44 50 44 5 -37 5 -36 55 0z"/>
<path d="M2386 4024 c-66 -73 -163 -149 -274 -214 -40 -24 -71 -45 -70 -49 12
-25 74 -101 83 -101 6 0 32 13 58 30 l47 30 0 -25 0 -25 275 0 c268 0 275 0
275 20 0 25 6 25 55 -5 22 -14 43 -25 46 -25 8 0 92 110 87 115 -1 1 -32 17
-68 35 -91 46 -196 120 -258 183 -46 47 -51 55 -38 67 30 24 16 30 -71 30
l-88 -1 -59 -65z m194 -156 l72 -68 -153 0 -154 0 40 32 c22 18 56 49 75 69
19 20 38 36 41 35 3 -1 39 -31 79 -68z"/>
<path d="M4067 4083 c-4 -3 -7 -44 -7 -90 l0 -83 -45 0 -45 0 0 -60 0 -60 45
0 45 0 0 -84 0 -85 -53 -11 -54 -11 12 -67 c6 -37 16 -66 21 -66 5 1 24 5 42
9 l33 7 -3 -94 -3 -93 -48 -3 c-37 -2 -47 -7 -43 -17 3 -8 8 -38 12 -66 l7
-52 69 7 c127 12 138 29 138 221 l0 136 30 6 c30 5 30 6 30 72 1 69 2 69 36
14 10 -15 15 -16 33 -5 19 11 21 10 21 -13 0 -25 0 -25 98 -25 l97 0 -50 -32
c-137 -86 -205 -158 -205 -220 0 -33 35 -85 69 -102 77 -40 349 -47 438 -11
51 20 69 46 88 127 24 102 23 105 -41 124 -68 20 -84 14 -84 -28 0 -58 -18
-104 -46 -116 -14 -7 -75 -12 -143 -12 -129 0 -153 9 -132 48 13 25 120 103
234 172 77 47 87 56 87 82 0 33 6 35 36 8 l21 -21 43 51 c24 29 39 55 34 58
-6 4 -32 23 -58 42 l-49 35 44 5 44 5 0 100 0 100 -112 3 -112 3 -18 49 c-20
55 -21 56 -107 39 -43 -9 -56 -16 -51 -26 3 -8 8 -26 11 -39 l6 -23 -109 -3
-108 -3 0 -100 0 -100 45 -5 45 -5 -62 -40 c-44 -28 -59 -43 -52 -51 7 -8 1
-15 -21 -22 l-30 -11 0 70 c0 67 1 69 25 69 24 0 25 3 25 60 0 57 -1 60 -25
60 -25 0 -25 1 -25 90 l0 90 -58 0 c-32 0 -62 -3 -65 -7z m663 -239 c0 -26 0
-26 -26 -9 -26 17 -27 17 -68 -25 l-41 -41 50 -44 50 -45 -132 0 c-73 0 -133
2 -133 4 0 2 25 23 56 46 l56 42 -38 39 c-21 21 -42 39 -48 39 -5 0 -20 -10
-33 -22 l-23 -21 0 31 0 32 165 0 165 0 0 -26z"/>
<path d="M3147 3973 c-4 -60 -10 -163 -13 -230 l-7 -123 293 0 293 0 -6 -132
c-9 -177 -5 -174 -172 -171 -86 1 -125 -2 -125 -10 0 -6 5 -37 12 -69 l12 -58
141 0 c129 0 146 2 185 23 66 35 81 74 91 226 4 69 8 170 9 224 l0 97 -291 0
-291 0 6 31 c3 17 6 40 6 50 0 18 14 19 310 19 l310 0 0 65 0 65 -305 0 -305
0 0 50 0 50 -73 0 -74 0 -6 -107z"/>
<path d="M5010 4010 l0 -70 -40 0 -40 0 0 -65 0 -65 40 0 41 0 -3 -87 -3 -87
-42 -9 -43 -8 0 -47 c0 -26 3 -57 6 -69 5 -18 10 -20 37 -12 18 5 36 9 40 9
11 0 5 -185 -6 -196 -4 -4 -23 -8 -42 -7 -40 1 -39 5 -24 -70 l12 -57 53 0
c72 0 101 13 121 55 l17 35 49 -47 c58 -57 60 -56 100 65 36 107 47 182 54
359 l6 153 236 2 236 3 3 133 3 132 -303 -2 -303 -3 -6 -280 c-5 -241 -9 -291
-27 -363 -12 -46 -29 -95 -37 -110 -13 -25 -14 -17 -15 105 l0 131 30 11 c29
10 30 12 30 71 l0 62 -30 -7 -30 -7 0 71 0 71 35 0 36 0 -3 63 c-3 62 -3 62
-35 65 l-33 3 0 70 0 69 -60 0 -60 0 0 -70z m690 -80 l0 -30 -180 0 -180 0 0
30 0 30 180 0 180 0 0 -30z"/>
<path d="M8633 3950 c0 -47 2 -66 4 -42 2 23 2 61 0 85 -2 23 -4 4 -4 -43z"/>
<path d="M5520 3685 c0 -95 0 -95 -25 -95 -24 0 -25 2 -25 76 l0 75 -52 -3
-53 -3 0 -125 0 -125 78 -3 77 -3 0 -89 0 -90 -35 0 -35 0 0 75 0 75 -60 0
-60 0 0 -130 0 -130 195 0 c167 0 195 -2 195 -15 0 -12 13 -15 55 -15 l55 0 0
145 0 145 -55 0 -55 0 0 -75 0 -75 -40 0 -40 0 0 90 0 90 80 0 80 0 0 125 0
125 -55 0 -55 0 0 -70 c0 -68 -1 -70 -25 -70 -25 0 -25 0 -25 95 l0 95 -60 0
-60 0 0 -95z"/>
<path d="M8632 3355 c-2 -404 4 -489 38 -554 26 -49 25 -23 -2 41 -21 51 -22
67 -25 438 -2 212 -5 403 -6 425 -2 22 -4 -135 -5 -350z"/>
<path d="M8762 3464 c-2 -220 0 -260 18 -328 47 -186 184 -348 313 -371 36 -7
52 -25 22 -25 -8 0 -15 -5 -15 -11 0 -7 12 -9 33 -6 17 4 77 9 132 12 55 4
119 8 141 10 62 4 65 -2 42 -75 -17 -51 -23 -60 -29 -45 -6 17 -8 16 -8 -7 -1
-16 -3 -28 -5 -28 -2 0 -23 11 -47 24 -122 68 -278 98 -457 90 -73 -4 -135
-10 -137 -15 -3 -4 30 -10 72 -13 236 -17 313 -26 358 -41 74 -24 88 -38 87
-82 -1 -36 -50 -143 -64 -143 -5 0 -8 -7 -8 -15 0 -8 -11 -30 -24 -50 -38 -56
-61 -134 -47 -157 9 -15 9 -23 1 -33 -15 -18 16 -55 47 -55 27 0 31 -26 6 -33
-17 -4 -17 -5 0 -6 14 -1 17 -6 12 -21 -5 -14 -2 -20 9 -20 9 0 16 -7 16 -15
0 -8 4 -15 8 -15 16 0 5 -57 -16 -86 -53 -70 -94 -94 -177 -105 -37 -5 8 -6
120 -4 225 5 393 27 510 67 50 16 95 34 101 39 12 10 208 29 384 38 l125 6
-80 8 c-175 17 -170 14 -157 113 4 32 5 73 1 89 -4 17 -7 159 -8 316 -1 316 3
299 -64 299 -18 0 -39 5 -47 10 -11 7 -1 10 35 10 28 1 64 7 80 15 l30 13 -40
2 c-22 1 -49 5 -60 10 -19 7 -19 8 5 18 139 55 216 124 278 252 60 122 74 183
79 346 l5 141 -31 6 c-16 4 -135 7 -262 7 l-233 1 -13 -50 c-29 -114 -108
-211 -211 -259 -48 -22 -71 -27 -147 -27 -120 0 -190 31 -274 121 -68 72 -100
145 -109 243 -5 60 -6 62 -17 35 -9 -23 -12 -25 -18 -11 -7 18 -37 24 -37 7 0
-5 -11 -10 -25 -10 -14 0 -25 -4 -25 -9 0 -6 -11 -22 -25 -37 -14 -15 -25 -32
-25 -38 0 -29 -22 -86 -33 -86 -11 0 -31 52 -43 108 -4 21 -14 27 -14 9 0 -9
-4 -17 -8 -17 -5 0 -13 30 -19 68 -8 56 -10 27 -11 -184z m148 -345 c36 -123
75 -200 133 -261 14 -16 22 -28 17 -28 -9 0 -103 107 -136 155 -36 54 -65 134
-71 202 -10 105 15 76 57 -68z m190 -309 c0 -5 -2 -10 -4 -10 -3 0 -8 5 -11
10 -3 6 -1 10 4 10 6 0 11 -4 11 -10z m83 -27 c-7 -2 -19 -2 -25 0 -7 3 -2 5
12 5 14 0 19 -2 13 -5z"/>
<path d="M2150 3380 l0 -220 70 0 c63 0 70 2 70 20 0 19 7 20 215 20 208 0
215 -1 215 -20 0 -18 7 -20 70 -20 l70 0 0 220 0 220 -355 0 -355 0 0 -220z
m570 20 l0 -70 -215 0 -215 0 0 70 0 70 215 0 215 0 0 -70z"/>
<path d="M3010 3465 l0 -65 323 2 322 3 3 63 3 62 -326 0 -325 0 0 -65z"/>
<path d="M7693 2775 c0 -38 2 -53 4 -32 2 20 2 52 0 70 -2 17 -4 1 -4 -38z"/>
<path d="M1780 2757 c0 -31 -2 -33 -29 -29 -23 3 -33 -2 -47 -23 -16 -25 -16
-30 -3 -54 12 -21 22 -26 57 -27 l42 -1 0 84 c0 49 -4 83 -10 83 -5 0 -10 -15
-10 -33z m-5 -82 c0 -25 -4 -30 -24 -30 -32 0 -49 28 -31 50 7 9 23 15 34 13
16 -2 21 -10 21 -33z"/>
<path d="M1840 2775 c0 -8 5 -15 10 -15 6 0 10 7 10 15 0 8 -4 15 -10 15 -5 0
-10 -7 -10 -15z"/>
<path d="M2100 2775 c0 -8 5 -15 10 -15 6 0 10 7 10 15 0 8 -4 15 -10 15 -5 0
-10 -7 -10 -15z"/>
<path d="M2290 2705 c0 -50 4 -85 10 -85 6 0 10 35 10 85 0 50 -4 85 -10 85
-6 0 -10 -35 -10 -85z"/>
<path d="M2350 2775 c0 -8 5 -15 10 -15 6 0 10 7 10 15 0 8 -4 15 -10 15 -5 0
-10 -7 -10 -15z"/>
<path d="M3860 2775 c0 -8 5 -15 10 -15 6 0 10 7 10 15 0 8 -4 15 -10 15 -5 0
-10 -7 -10 -15z"/>
<path d="M4660 2775 c0 -8 5 -15 10 -15 6 0 10 7 10 15 0 8 -4 15 -10 15 -5 0
-10 -7 -10 -15z"/>
<path d="M5380 2757 c0 -31 -2 -33 -29 -29 -23 3 -33 -2 -47 -23 -16 -25 -16
-30 -3 -54 12 -21 22 -26 57 -27 l42 -1 0 84 c0 49 -4 83 -10 83 -5 0 -10 -15
-10 -33z m-5 -82 c0 -25 -4 -30 -24 -30 -32 0 -49 28 -31 50 7 9 23 15 34 13
16 -2 21 -10 21 -33z"/>
<path d="M5700 2775 c0 -8 5 -15 10 -15 6 0 10 7 10 15 0 8 -4 15 -10 15 -5 0
-10 -7 -10 -15z"/>
<path d="M5890 2775 c0 -8 5 -15 10 -15 6 0 10 7 10 15 0 8 -4 15 -10 15 -5 0
-10 -7 -10 -15z"/>
<path d="M1107 2760 c-57 -45 -24 -145 45 -138 17 2 33 8 35 14 2 7 -5 10 -20
7 -43 -8 -67 13 -67 57 0 44 24 65 67 57 15 -3 22 0 20 7 -6 20 -52 18 -80 -4z"/>
<path d="M4046 2738 c-13 -14 -15 -23 -8 -26 7 -2 12 -16 12 -32 0 -41 10 -60
31 -60 23 0 25 15 4 24 -9 3 -15 18 -15 36 0 20 5 30 15 30 8 0 15 5 15 10 0
6 -6 10 -14 10 -8 0 -16 7 -18 15 -2 13 -7 11 -22 -7z"/>
<path d="M4590 2746 c0 -8 -6 -17 -12 -19 -10 -4 -10 -8 -1 -14 6 -4 13 -26
15 -48 2 -33 7 -41 26 -43 12 -2 22 1 22 7 0 6 -7 11 -15 11 -10 0 -15 11 -15
35 0 24 5 35 15 35 8 0 15 5 15 10 0 6 -7 10 -15 10 -8 0 -15 7 -15 15 0 8 -4
15 -10 15 -5 0 -10 -6 -10 -14z"/>
<path d="M1230 2673 c0 -29 5 -53 10 -53 6 0 10 18 10 41 0 32 4 42 20 46 30
8 24 22 -10 21 -29 -1 -30 -2 -30 -55z"/>
<path d="M1316 2714 c-9 -8 -16 -26 -16 -39 0 -50 60 -73 93 -37 34 37 11 92
-38 92 -13 0 -31 -7 -39 -16z m69 -39 c0 -27 -3 -30 -30 -30 -21 0 -31 5 -33
18 -6 33 6 49 35 45 24 -3 28 -8 28 -33z"/>
<path d="M1447 2724 c-16 -16 -6 -45 18 -54 36 -14 32 -33 -5 -28 -19 3 -29 1
-27 -6 5 -16 46 -19 63 -6 23 20 16 40 -18 55 -27 11 -30 15 -15 20 9 4 24 4
33 1 10 -4 14 -1 12 6 -5 14 -50 23 -61 12z"/>
<path d="M1540 2715 c-15 -17 -6 -33 26 -45 35 -14 30 -33 -6 -28 -19 3 -29 1
-27 -6 5 -17 52 -19 66 -3 16 20 4 44 -25 51 -32 8 -31 26 1 26 14 0 25 5 25
10 0 15 -46 12 -60 -5z"/>
<path d="M1840 2675 c0 -30 5 -55 10 -55 6 0 10 25 10 55 0 30 -4 55 -10 55
-5 0 -10 -25 -10 -55z"/>
<path d="M1903 2724 c-22 -9 -14 -40 12 -52 14 -6 25 -17 25 -23 0 -7 -10 -9
-25 -7 -14 3 -25 2 -25 -3 0 -14 21 -21 46 -15 32 8 32 43 -1 58 -33 15 -32
32 0 25 16 -3 24 0 22 7 -4 12 -35 18 -54 10z"/>
<path d="M2008 2719 c-22 -12 -24 -71 -4 -89 17 -14 58 -10 63 6 2 7 -5 10
-20 7 -33 -6 -52 19 -37 47 9 16 18 21 36 17 16 -3 23 0 21 7 -5 15 -38 18
-59 5z"/>
<path d="M2100 2675 c0 -30 5 -55 10 -55 6 0 10 25 10 55 0 30 -4 55 -10 55
-5 0 -10 -25 -10 -55z"/>
<path d="M2160 2648 c0 -45 4 -78 10 -78 6 0 10 13 10 29 0 24 3 28 23 24 31
-6 57 20 57 56 0 37 -16 49 -62 48 l-38 -1 0 -78z m75 27 c0 -25 -4 -30 -25
-30 -16 0 -26 6 -28 18 -6 30 6 49 30 45 18 -2 23 -9 23 -33z"/>
<path d="M2350 2675 c0 -30 5 -55 10 -55 6 0 10 25 10 55 0 30 -4 55 -10 55
-5 0 -10 -25 -10 -55z"/>
<path d="M2410 2673 c0 -63 17 -72 22 -10 2 34 7 42 23 42 16 0 21 -8 23 -42
4 -56 22 -55 22 1 0 51 -13 65 -58 64 -32 -1 -32 -1 -32 -55z"/>
<path d="M2547 2723 c-12 -12 -7 -22 8 -17 8 4 23 3 33 -1 14 -6 10 -10 -18
-19 -23 -9 -36 -20 -38 -34 -4 -27 23 -40 49 -23 12 7 19 7 19 1 0 -5 5 -10
10 -10 14 0 12 84 -2 98 -13 13 -50 16 -61 5z m51 -65 c-7 -20 -48 -23 -48 -4
0 11 9 16 26 16 16 0 24 -5 22 -12z"/>
<path d="M2660 2673 c0 -29 5 -53 10 -53 6 0 10 18 10 41 0 32 4 42 20 46 30
8 24 22 -10 21 -29 -1 -30 -2 -30 -55z"/>
<path d="M2750 2684 c25 -58 25 -84 0 -91 -11 -3 -20 -9 -20 -14 0 -11 21 -11
37 -1 17 10 74 152 62 152 -5 0 -17 -19 -26 -42 l-17 -42 -17 42 c-10 23 -23
42 -28 42 -6 0 -1 -21 9 -46z"/>
<path d="M2920 2675 c0 -65 16 -74 22 -12 5 46 1 67 -13 67 -5 0 -9 -25 -9
-55z"/>
<path d="M2955 2720 c-3 -5 1 -10 9 -10 9 0 16 5 16 10 0 6 -4 10 -9 10 -6 0
-13 -4 -16 -10z"/>
<path d="M3011 2716 c-17 -20 -10 -77 10 -89 18 -11 69 -2 69 13 0 5 -13 7
-28 4 -19 -4 -32 -1 -41 10 -12 14 -9 16 28 16 33 0 41 4 41 18 0 39 -55 58
-79 28z m59 -16 c0 -5 -12 -10 -26 -10 -14 0 -23 4 -19 10 3 6 15 10 26 10 10
0 19 -4 19 -10z"/>
<path d="M3133 2724 c-22 -9 -14 -40 12 -52 14 -6 25 -17 25 -23 0 -7 -10 -9
-25 -7 -14 3 -25 2 -25 -3 0 -14 21 -21 46 -15 32 8 32 43 -1 58 -33 15 -32
32 0 25 16 -3 24 0 22 7 -4 12 -35 18 -54 10z"/>
<path d="M3238 2719 c-21 -12 -24 -69 -6 -87 22 -22 66 -14 85 14 15 24 15 29
2 53 -16 28 -53 38 -81 20z m63 -25 c17 -21 0 -49 -31 -49 -31 0 -48 28 -31
49 8 9 21 16 31 16 10 0 23 -7 31 -16z"/>
<path d="M3354 2684 c3 -25 8 -50 12 -55 8 -13 38 -11 52 3 9 9 12 9 12 0 0
-7 5 -12 10 -12 6 0 10 25 10 55 0 64 -17 74 -22 13 -2 -33 -8 -44 -22 -46
-24 -5 -36 14 -36 56 0 17 -5 32 -11 32 -8 0 -10 -15 -5 -46z"/>
<path d="M3490 2673 c0 -29 5 -53 10 -53 6 0 10 18 10 41 0 32 4 42 20 46 30
8 24 22 -10 21 -29 -1 -30 -2 -30 -55z"/>
<path d="M3577 2712 c-35 -38 -9 -96 41 -90 38 4 37 23 0 23 -28 0 -33 4 -36
27 -3 22 2 29 22 34 14 3 30 3 37 -1 7 -5 10 -3 7 6 -7 22 -52 22 -71 1z"/>
<path d="M3687 2717 c-23 -16 -20 -75 4 -90 17 -10 69 -2 69 11 0 4 -14 7 -32
7 -48 0 -47 23 1 27 40 3 40 4 28 28 -15 29 -44 36 -70 17z m58 -17 c4 -6 -7
-10 -25 -10 -18 0 -29 4 -25 10 3 6 15 10 25 10 10 0 22 -4 25 -10z"/>
<path d="M3860 2675 c0 -30 5 -55 10 -55 6 0 10 25 10 55 0 30 -4 55 -10 55
-5 0 -10 -25 -10 -55z"/>
<path d="M3920 2673 c0 -63 17 -72 22 -10 2 34 7 42 23 42 16 0 21 -8 23 -42
4 -56 22 -55 22 1 0 51 -13 65 -58 64 -32 -1 -32 -1 -32 -55z"/>
<path d="M4136 2714 c-36 -35 -7 -98 42 -92 37 4 38 23 0 23 -17 0 -33 6 -35
13 -3 8 8 12 36 12 29 0 41 4 41 14 0 20 -28 46 -50 46 -10 0 -26 -7 -34 -16z
m59 -14 c4 -6 -7 -10 -25 -10 -18 0 -29 4 -25 10 3 6 15 10 25 10 10 0 22 -4
25 -10z"/>
<path d="M4256 2714 c-31 -30 -12 -94 27 -94 13 0 28 5 35 12 16 16 15 -4 -1
-27 -10 -12 -22 -16 -41 -13 -17 4 -25 1 -23 -6 5 -16 42 -19 66 -6 18 9 21
20 21 78 l0 67 -34 2 c-21 2 -41 -3 -50 -13z m65 -20 c17 -21 0 -49 -32 -49
-24 0 -36 23 -25 51 7 19 40 18 57 -2z"/>
<path d="M4380 2675 c0 -65 16 -74 22 -12 5 46 1 67 -13 67 -5 0 -9 -25 -9
-55z"/>
<path d="M4415 2720 c-3 -5 1 -10 9 -10 9 0 16 5 16 10 0 6 -4 10 -9 10 -6 0
-13 -4 -16 -10z"/>
<path d="M4477 2723 c-12 -12 -7 -22 8 -17 8 4 23 3 33 -1 14 -6 10 -10 -18
-19 -23 -9 -36 -20 -38 -34 -4 -27 23 -40 49 -23 12 7 19 7 19 1 0 -5 5 -10
10 -10 14 0 12 84 -2 98 -13 13 -50 16 -61 5z m51 -65 c-7 -20 -48 -23 -48 -4
0 11 9 16 26 16 16 0 24 -5 22 -12z"/>
<path d="M4660 2675 c0 -30 5 -55 10 -55 6 0 10 25 10 55 0 30 -4 55 -10 55
-5 0 -10 -25 -10 -55z"/>
<path d="M4723 2704 c-15 -24 -15 -29 -2 -53 28 -51 99 -35 99 22 0 40 -15 57
-52 57 -19 0 -33 -8 -45 -26z m78 -10 c17 -21 0 -49 -31 -49 -31 0 -48 28 -31
49 8 9 21 16 31 16 10 0 23 -7 31 -16z"/>
<path d="M4860 2673 c0 -63 17 -72 22 -10 2 34 7 42 23 42 16 0 21 -8 23 -42
4 -56 22 -55 22 1 0 51 -13 65 -58 64 -32 -1 -32 -1 -32 -55z"/>
<path d="M5057 2724 c-14 -15 -6 -20 23 -16 39 6 39 -14 1 -23 -59 -13 -46
-65 15 -63 l35 1 -3 51 c-3 49 -4 51 -33 54 -17 2 -34 0 -38 -4z m53 -63 c0
-6 -5 -13 -10 -16 -15 -9 -43 3 -35 15 8 13 45 13 45 1z"/>
<path d="M5170 2675 c0 -65 17 -74 22 -12 2 35 7 43 26 45 20 3 22 -1 22 -42
0 -25 5 -46 10 -46 6 0 10 23 10 50 0 56 -17 73 -51 51 -12 -7 -19 -7 -19 -1
0 5 -4 10 -10 10 -5 0 -10 -25 -10 -55z"/>
<path d="M5500 2675 c0 -65 17 -74 22 -12 2 34 7 42 23 42 16 0 21 -8 23 -42
4 -48 22 -59 22 -14 0 42 10 61 31 61 16 0 19 -8 19 -45 0 -25 5 -45 10 -45 6
0 10 23 10 50 0 56 -17 73 -51 51 -15 -8 -24 -8 -38 1 -15 9 -23 9 -35 -1 -11
-9 -16 -10 -16 -2 0 6 -4 11 -10 11 -5 0 -10 -25 -10 -55z"/>
<path d="M5700 2675 c0 -30 5 -55 10 -55 6 0 10 25 10 55 0 30 -4 55 -10 55
-5 0 -10 -25 -10 -55z"/>
<path d="M5760 2673 c0 -63 18 -72 22 -10 2 34 7 42 23 42 16 0 21 -8 23 -42
4 -56 22 -55 22 1 0 50 -12 63 -57 63 l-33 0 0 -54z"/>
<path d="M5890 2675 c0 -30 5 -55 10 -55 6 0 10 25 10 55 0 30 -4 55 -10 55
-5 0 -10 -25 -10 -55z"/>
<path d="M5950 2673 c0 -63 17 -72 22 -10 2 34 7 42 23 42 16 0 21 -8 23 -42
4 -56 22 -55 22 1 0 51 -13 65 -58 64 -32 -1 -32 -1 -32 -55z"/>
<path d="M6086 2714 c-31 -30 -12 -94 27 -94 13 0 28 5 35 12 16 16 15 -4 -1
-27 -10 -12 -22 -16 -41 -13 -17 4 -25 1 -23 -6 5 -16 42 -19 66 -6 18 9 21
20 21 78 l0 67 -34 2 c-21 2 -41 -3 -50 -13z m65 -20 c17 -21 0 -49 -32 -49
-24 0 -36 23 -25 51 7 19 40 18 57 -2z"/>
<path d="M10833 1953 c9 -2 25 -2 35 0 9 3 1 5 -18 5 -19 0 -27 -2 -17 -5z"/>
<path d="M10778 1943 c6 -2 18 -2 25 0 6 3 1 5 -13 5 -14 0 -19 -2 -12 -5z"/>
<path d="M10738 1933 c7 -3 16 -2 19 1 4 3 -2 6 -13 5 -11 0 -14 -3 -6 -6z"/>
<path d="M10673 1923 c9 -2 23 -2 30 0 6 3 -1 5 -18 5 -16 0 -22 -2 -12 -5z"/>
<path d="M10475 1899 c-127 -19 -360 -67 -336 -68 14 -1 383 60 471 78 82 16
-7 10 -135 -10z"/>
<path d="M10045 1820 c-27 -7 -27 -8 -5 -8 14 0 39 4 55 8 27 7 27 8 5 8 -14
0 -38 -4 -55 -8z"/>
<path d="M9973 1803 c9 -2 23 -2 30 0 6 3 -1 5 -18 5 -16 0 -22 -2 -12 -5z"/>
<path d="M9913 1793 c9 -2 23 -2 30 0 6 3 -1 5 -18 5 -16 0 -22 -2 -12 -5z"/>
<path d="M9858 1783 c7 -3 16 -2 19 1 4 3 -2 6 -13 5 -11 0 -14 -3 -6 -6z"/>
<path d="M9808 1773 c7 -3 16 -2 19 1 4 3 -2 6 -13 5 -11 0 -14 -3 -6 -6z"/>
<path d="M9748 1763 c7 -3 16 -2 19 1 4 3 -2 6 -13 5 -11 0 -14 -3 -6 -6z"/>
<path d="M9478 1713 c7 -3 16 -2 19 1 4 3 -2 6 -13 5 -11 0 -14 -3 -6 -6z"/>
<path d="M9368 1693 c7 -3 16 -2 19 1 4 3 -2 6 -13 5 -11 0 -14 -3 -6 -6z"/>
<path d="M9318 1683 c7 -3 16 -2 19 1 4 3 -2 6 -13 5 -11 0 -14 -3 -6 -6z"/>
<path d="M9258 1673 c6 -2 18 -2 25 0 6 3 1 5 -13 5 -14 0 -19 -2 -12 -5z"/>
<path d="M9208 1663 c6 -2 18 -2 25 0 6 3 1 5 -13 5 -14 0 -19 -2 -12 -5z"/>
<path d="M9158 1653 c7 -3 16 -2 19 1 4 3 -2 6 -13 5 -11 0 -14 -3 -6 -6z"/>
<path d="M9098 1643 c6 -2 18 -2 25 0 6 3 1 5 -13 5 -14 0 -19 -2 -12 -5z"/>
<path d="M8938 1613 c7 -3 16 -2 19 1 4 3 -2 6 -13 5 -11 0 -14 -3 -6 -6z"/>
</g>
</svg>
